<svg xmlns="http://www.w3.org/2000/svg" version="1.1" xmlns:xlink="http://www.w3.org/1999/xlink" xmlns:svgjs="http://svgjs.dev/svgjs" width="1500" height="727" viewBox="0 0 1500 727"><g transform="matrix(1,0,0,1,-0.9090909090909918,-0.9386701097482728)"><svg viewBox="0 0 396 192" data-background-color="#ffffff" preserveAspectRatio="xMidYMid meet" height="727" width="1500" xmlns="http://www.w3.org/2000/svg" xmlns:xlink="http://www.w3.org/1999/xlink"><g id="tight-bounds" transform="matrix(1,0,0,1,0.2400000000000091,0.24790187217560344)"><svg viewBox="0 0 395.52 191.5041962556488" height="191.5041962556488" width="395.52"><g><svg viewBox="0 0 395.52 191.5041962556488" height="191.5041962556488" width="395.52"><g><svg viewBox="0 0 395.52 191.5041962556488" height="191.5041962556488" width="395.52"><g><svg viewBox="0 0 395.52 191.5041962556488" height="191.5041962556488" width="395.52"><g id="textblocktransform"><svg viewBox="0 0 395.52 191.5041962556488" height="191.5041962556488" width="395.52" id="textblock"><g><svg viewBox="0 0 395.52 191.5041962556488" height="191.5041962556488" width="395.52"><g transform="matrix(1,0,0,1,0,0)"><svg width="395.52" viewBox="0.6 -37.5 77.45 37.5" height="191.5041962556488" data-palette-color="#10b981"><path d="M6.95-34L6.95-34Q9.5-35.65 12.43-36.58 15.35-37.5 18.15-37.5L18.15-37.5Q18.5-37.5 18.93-37.48 19.35-37.45 20.15-37.4L20.15-37.4 16.95-22.5 24.3-22.5 27.5-37.4 34.7-37.4 26.75 0 19.55 0 23.55-18.8 16.2-18.8 12.2 0 5 0 12.25-34Q8.85-32.6 7.05-29.78 5.25-26.95 5.25-23.05L5.25-23.05Q5.25-22.1 5.38-21.4 5.5-20.7 5.8-20.05L5.8-20.05Q5.9-19.85 5.93-19.78 5.95-19.7 5.95-19.65L5.95-19.65Q3.15-19.65 1.88-20.83 0.6-22 0.6-24.5L0.6-24.5Q0.6-27 2.27-29.5 3.95-32 6.95-34ZM44.25-11.1L34.2-11.1 35.1-15.05 45.1-15.05 44.25-11.1ZM73.3-31.5L73.3-31.5Q71.95-31.5 70.32-31.73 68.7-31.95 66.3-32.45L66.3-32.45 64.2-22.5 71.5-22.5 70.7-18.8 63.4-18.8 59.35 0 52.15 0 59.35-33.4Q55.9-33.25 54.37-30.75 52.85-28.25 52.85-23.05L52.85-23.05Q52.85-22.1 52.97-21.4 53.1-20.7 53.4-20.05L53.4-20.05Q53.5-19.85 53.52-19.78 53.55-19.7 53.55-19.65L53.55-19.65Q50.75-19.65 49.47-20.83 48.2-22 48.2-24.5L48.2-24.5Q48.2-30.45 52.67-33.98 57.15-37.5 65.25-37.5L65.25-37.5Q65.7-37.5 66.34-37.45 67-37.4 68.5-37.25L68.5-37.25Q70.5-37.05 71.57-36.98 72.65-36.9 73.55-36.9L73.55-36.9Q74.9-36.9 76-37.05 77.09-37.2 78.05-37.5L78.05-37.5Q78-37.4 77.59-35.95 77.2-34.5 76.65-33.65L76.65-33.65Q76.09-32.8 75.27-32.27 74.45-31.75 73.3-31.5Z" opacity="1" transform="matrix(1,0,0,1,0,0)" fill="#10b981" class="wordmark-text-0" data-fill-palette-color="primary" id="text-0"></path></svg></g></svg></g></svg></g></svg></g></svg></g></svg></g><defs></defs></svg><rect width="395.52" height="191.5041962556488" fill="none" stroke="none" visibility="hidden"></rect></g></svg></g></svg>