<svg xmlns="http://www.w3.org/2000/svg" version="1.1" xmlns:xlink="http://www.w3.org/1999/xlink" xmlns:svgjs="http://svgjs.dev/svgjs" width="1500" height="1500" viewBox="0 0 1500 1500"><rect width="1500" height="1500" fill="#000000"></rect><g transform="matrix(0.6666666666666666,0,0,0.6666666666666666,249.39393939393938,670.6730877047498)"><svg viewBox="0 0 396 63" data-background-color="#ffffff" preserveAspectRatio="xMidYMid meet" height="238" width="1500" xmlns="http://www.w3.org/2000/svg" xmlns:xlink="http://www.w3.org/1999/xlink"><g id="tight-bounds" transform="matrix(1,0,0,1,0.2400000000000091,-0.002549529827177821)"><svg viewBox="0 0 395.52 63.005099059654334" height="63.005099059654334" width="395.52"><g><svg viewBox="0 0 395.52 63.005099059654334" height="63.005099059654334" width="395.52"><g><svg viewBox="0 0 538.2214902257268 85.73700017118401" height="63.005099059654334" width="395.52"><g><rect width="7.693384234847315" height="85.73700017118401" x="415.65974930588305" y="0" fill="#ffffff" opacity="1" stroke-width="0" stroke="transparent" fill-opacity="1" class="rect-qz-0" data-fill-palette-color="secondary" rx="1%" id="qz-0" data-palette-color="#000000"></rect></g><g transform="matrix(1,0,0,1,0,0.21327611982881223)"><svg viewBox="0 0 395.52000000000004 85.31044793152638" height="85.31044793152638" width="395.52000000000004"><g id="textblocktransform"><svg viewBox="0 0 395.52000000000004 85.31044793152638" height="85.31044793152638" width="395.52000000000004" id="textblock"><g><svg viewBox="0 0 395.52000000000004 85.31044793152638" height="85.31044793152638" width="395.52000000000004"><g transform="matrix(1,0,0,1,0,0)"><svg width="395.52000000000004" viewBox="0.6 -37.5 175.24 37.8" height="85.31044793152638" data-palette-color="#10b981"><path d="M6.95-34L6.95-34Q9.5-35.65 12.43-36.58 15.35-37.5 18.15-37.5L18.15-37.5Q18.5-37.5 18.93-37.48 19.35-37.45 20.15-37.4L20.15-37.4 16.95-22.5 24.3-22.5 27.5-37.4 34.7-37.4 26.75 0 19.55 0 23.55-18.8 16.2-18.8 12.2 0 5 0 12.25-34Q8.85-32.6 7.05-29.78 5.25-26.95 5.25-23.05L5.25-23.05Q5.25-22.1 5.38-21.4 5.5-20.7 5.8-20.05L5.8-20.05Q5.9-19.85 5.93-19.78 5.95-19.7 5.95-19.65L5.95-19.65Q3.15-19.65 1.88-20.83 0.6-22 0.6-24.5L0.6-24.5Q0.6-27 2.27-29.5 3.95-32 6.95-34ZM51.6-20.65L51.6-20.65Q51.6-16.5 48.2-13.43 44.8-10.35 40.1-10.1L40.1-10.1Q40.05-9.25 40.02-8.83 40-8.4 40-8.1L40-8.1Q40-5.8 40.77-4.85 41.55-3.9 43.6-3.9L43.6-3.9Q45.95-3.9 47.92-4.98 49.9-6.05 52.45-8.95L52.45-8.95 54.15-8.95Q51.25-4.25 47.85-1.98 44.45 0.3 40.4 0.3L40.4 0.3Q36.55 0.3 34.57-1.7 32.6-3.7 32.6-7.65L32.6-7.65Q32.6-10.5 33.5-13.7 34.4-16.9 35.9-19.4L35.9-19.4Q37.75-22.4 40.32-23.93 42.9-25.45 46.1-25.45L46.1-25.45Q48.85-25.45 50.22-24.28 51.6-23.1 51.6-20.65ZM46.5-22.8L46.5-22.8Q44.8-22.8 43.07-19.78 41.35-16.75 40.5-12.5L40.5-12.5Q43.4-12.7 45.57-15.18 47.75-17.65 47.75-20.75L47.75-20.75Q47.75-21.8 47.45-22.3 47.15-22.8 46.5-22.8ZM69.2-22.7L69.2-22.7 69.2-22.35 69.75-25 76.95-25 73.35-8Q73.25-7.55 73.2-7.18 73.15-6.8 73.15-6.4L73.15-6.4Q73.15-5.3 73.65-4.78 74.15-4.25 75.2-4.25L75.2-4.25Q76.5-4.25 77.55-5.48 78.6-6.7 79.25-8.95L79.25-8.95 81.35-8.95Q79.75-4.35 77.2-2.02 74.65 0.3 71.3 0.3L71.3 0.3Q69.15 0.3 67.87-0.9 66.6-2.1 66.4-4.3L66.4-4.3Q64.85-2 62.97-0.85 61.1 0.3 58.95 0.3L58.95 0.3Q55.85 0.3 54.07-1.8 52.3-3.9 52.3-7.75L52.3-7.75Q52.3-10.55 53.15-13.6 54-16.65 55.5-19.15L55.5-19.15Q57.35-22.1 59.8-23.68 62.25-25.25 65.15-25.25L65.15-25.25Q67.1-25.25 68.15-24.58 69.2-23.9 69.2-22.7ZM66.35-8.95L68.75-20.25Q68.75-21 68.2-21.58 67.65-22.15 66.7-22.15L66.7-22.15Q63.95-22.15 61.82-17.55 59.7-12.95 59.7-8.45L59.7-8.45Q59.7-6.5 60.25-5.53 60.8-4.55 62.2-4.55L62.2-4.55Q63.5-4.55 64.72-5.8 65.95-7.05 66.35-8.95L66.35-8.95ZM104.79-31.5L104.79-31.5Q103.44-31.5 101.82-31.73 100.19-31.95 97.79-32.45L97.79-32.45 95.69-22.5 102.99-22.5 102.19-18.8 94.89-18.8 90.84 0 83.64 0 90.84-33.4Q87.39-33.25 85.87-30.75 84.34-28.25 84.34-23.05L84.34-23.05Q84.34-22.1 84.47-21.4 84.59-20.7 84.89-20.05L84.89-20.05Q84.99-19.85 85.02-19.78 85.04-19.7 85.04-19.65L85.04-19.65Q82.24-19.65 80.97-20.83 79.69-22 79.69-24.5L79.69-24.5Q79.69-30.45 84.17-33.98 88.64-37.5 96.74-37.5L96.74-37.5Q97.19-37.5 97.84-37.45 98.49-37.4 99.99-37.25L99.99-37.25Q101.99-37.05 103.07-36.98 104.14-36.9 105.04-36.9L105.04-36.9Q106.39-36.9 107.49-37.05 108.59-37.2 109.54-37.5L109.54-37.5Q109.49-37.4 109.09-35.95 108.69-34.5 108.14-33.65L108.14-33.65Q107.59-32.8 106.77-32.27 105.94-31.75 104.79-31.5ZM101.49-7.7L101.49-7.7Q101.49-10.55 102.42-13.75 103.34-16.95 104.94-19.45L104.94-19.45Q106.79-22.4 109.39-23.93 111.99-25.45 115.19-25.45L115.19-25.45Q118.39-25.45 119.99-23.45 121.59-21.45 121.59-17.45L121.59-17.45Q121.69-17.4 121.82-17.38 121.94-17.35 122.14-17.35L122.14-17.35Q123.69-17.35 125.84-18.2 127.99-19.05 129.84-20.35L129.84-20.35 130.29-19Q128.89-17.5 126.57-16.4 124.24-15.3 121.44-14.85L121.44-14.85Q120.84-8.1 117.54-3.95 114.24 0.2 109.49 0.2L109.49 0.2Q105.59 0.2 103.54-1.8 101.49-3.8 101.49-7.7ZM115.59-22.4L115.59-22.4Q113.19-22.4 111.07-17.55 108.94-12.7 108.94-8.35L108.94-8.35Q108.94-6 109.47-5.15 109.99-4.3 111.49-4.3L111.49-4.3Q113.34-4.3 115.02-7.3 116.69-10.3 117.29-14.7L117.29-14.7Q116.59-14.85 116.27-15.38 115.94-15.9 115.94-16.8L115.94-16.8Q115.94-17.75 116.34-18.45 116.74-19.15 117.49-19.5L117.49-19.5Q117.39-21.1 116.97-21.75 116.54-22.4 115.59-22.4ZM123.44-7.7L123.44-7.7Q123.44-10.55 124.36-13.75 125.29-16.95 126.89-19.45L126.89-19.45Q128.74-22.4 131.34-23.93 133.94-25.45 137.14-25.45L137.14-25.45Q140.34-25.45 141.94-23.45 143.54-21.45 143.54-17.45L143.54-17.45Q143.64-17.4 143.76-17.38 143.89-17.35 144.09-17.35L144.09-17.35Q145.64-17.35 147.79-18.2 149.94-19.05 151.79-20.35L151.79-20.35 152.24-19Q150.84-17.5 148.51-16.4 146.19-15.3 143.39-14.85L143.39-14.85Q142.79-8.1 139.49-3.95 136.19 0.2 131.44 0.2L131.44 0.2Q127.54 0.2 125.49-1.8 123.44-3.8 123.44-7.7ZM137.54-22.4L137.54-22.4Q135.14-22.4 133.01-17.55 130.89-12.7 130.89-8.35L130.89-8.35Q130.89-6 131.41-5.15 131.94-4.3 133.44-4.3L133.44-4.3Q135.29-4.3 136.96-7.3 138.64-10.3 139.24-14.7L139.24-14.7Q138.54-14.85 138.21-15.38 137.89-15.9 137.89-16.8L137.89-16.8Q137.89-17.75 138.29-18.45 138.69-19.15 139.44-19.5L139.44-19.5Q139.34-21.1 138.91-21.75 138.49-22.4 137.54-22.4ZM154.24-8.45L154.24-8.45Q154.24-6.5 154.79-5.53 155.34-4.55 156.74-4.55L156.74-4.55Q157.99-4.55 159.19-5.73 160.39-6.9 160.84-8.7L160.84-8.7 160.84-8.95 163.29-20.4Q163.14-21.2 162.61-21.68 162.09-22.15 161.24-22.15L161.24-22.15Q158.49-22.15 156.36-17.55 154.24-12.95 154.24-8.45ZM163.74-22.7L163.74-22.7 163.74-22.5 166.19-34 173.59-35 167.84-8Q167.74-7.55 167.69-7.18 167.64-6.8 167.64-6.4L167.64-6.4Q167.64-5.4 168.11-4.98 168.59-4.55 169.69-4.55L169.69-4.55Q170.99-4.55 172.04-5.7 173.09-6.85 173.74-8.95L173.74-8.95 175.84-8.95Q174.29-4.5 171.81-2.25 169.34 0 165.79 0L165.79 0Q163.74 0 162.46-1.13 161.19-2.25 160.89-4.3L160.89-4.3Q159.39-2 157.54-0.85 155.69 0.3 153.49 0.3L153.49 0.3Q150.39 0.3 148.61-1.8 146.84-3.9 146.84-7.75L146.84-7.75Q146.84-10.55 147.69-13.6 148.54-16.65 150.04-19.15L150.04-19.15Q151.89-22.1 154.34-23.68 156.79-25.25 159.69-25.25L159.69-25.25Q161.64-25.25 162.69-24.58 163.74-23.9 163.74-22.7Z" opacity="1" transform="matrix(1,0,0,1,0,0)" fill="#ffffff" class="wordmark-text-0" data-fill-palette-color="primary" id="text-0"></path></svg></g></svg></g></svg></g></svg></g><g transform="matrix(1,0,0,1,443.4928828466134,1.014341225905845)"><svg viewBox="0 0 94.72860737911341 83.70831771937232" height="83.70831771937232" width="94.72860737911341"><g><svg xmlns="http://www.w3.org/2000/svg" xmlns:xlink="http://www.w3.org/1999/xlink" version="1.1" x="8" y="0" viewBox="10.115187922752673 9.994 75.31331252208729 80.077" enable-background="new 0 0 100 100" xml:space="preserve" height="83.70831771937232" width="78.72860737911341" class="icon-icon-0" data-fill-palette-color="accent" id="icon-0"><g fill="#10b981" data-fill-palette-color="accent"><rect x="16.672" y="28.799" width="7.777" height="2" fill="#ffffff" data-fill-palette-color="accent"></rect></g><g fill="#10b981" data-fill-palette-color="accent"><rect x="75.361" y="28.796" width="7.776" height="2" fill="#ffffff" data-fill-palette-color="accent"></rect></g><g fill="#10b981" data-fill-palette-color="accent"><rect x="70.903" y="11.484" transform="matrix(-0.707 -0.7072 0.7072 -0.707 111.8647 77.0957)" width="2" height="7.78" fill="#ffffff" data-fill-palette-color="accent"></rect></g><g fill="#10b981" data-fill-palette-color="accent"><rect x="24.019" y="14.376" transform="matrix(-0.7072 -0.707 0.707 -0.7072 36.7725 45.9812)" width="7.776" height="2" fill="#ffffff" data-fill-palette-color="accent"></rect></g><g fill="#10b981" data-fill-palette-color="accent"><rect x="26.906" y="39.913" transform="matrix(0.7071 0.7071 -0.7071 0.7071 39.1469 -6.9031)" width="2" height="7.78" fill="#ffffff" data-fill-palette-color="accent"></rect></g><g fill="#10b981" data-fill-palette-color="accent"><rect x="68.012" y="42.802" transform="matrix(0.7072 0.707 -0.707 0.7072 52.0211 -38.0092)" width="7.777" height="2" fill="#ffffff" data-fill-palette-color="accent"></rect></g><g fill="#10b981" data-fill-palette-color="accent"><path d="M55.809 69.098h4.66c1.161-0.013 2.21-0.481 2.979-1.236l14.604-14.604 0.002 0.002c1.689-1.681 4.421-1.681 6.108 0.009 1.688 1.686 1.688 4.418 0.004 6.107l0.006 0.004-20.39 20.385C63 80.54 61.928 81.02 60.742 81.02c-0.193 0-0.365 0.01-0.545 0.017l-22.875 0.002c-0.079 0-0.161-0.005-0.238-0.005l0.002 0.005c-0.668 0-4.56 0.017-5.116 0-0.584-0.021-1.175 0.198-1.627 0.632l-8.404 8.4H10.128c-0.031-0.213 0.004-14.086 0.004-14.086-0.021-1.106 0.392-2.221 1.223-3.078l13.601-13.497c0.019-0.019 0.036-0.036 0.055-0.054l0.271-0.269h0.025c2.584-2.413 6.247-3.166 10.019-3.165l20.266-0.002c2.383 0.006 4.314 1.936 4.314 4.323 0 2.386-1.932 4.317-4.314 4.323v0.007l-15.853 0.001c-1.248 0-2.262 1.015-2.262 2.265-0.001 1.248 1.013 2.261 2.26 2.261h13.397 2.674V69.098z" fill="#ffffff" data-fill-palette-color="accent"></path></g><path d="M59.091 19.688c-3.974 0-7.353 2.56-8.598 6.115h-1.035c-1.245-3.556-4.624-6.115-8.599-6.115-5.026 0-9.115 4.09-9.115 9.115 0 2.626 1.123 4.99 2.906 6.655h-0.01l14.6 14.6h1.439l14.358-14.361c1.937-1.673 3.169-4.14 3.169-6.895C68.207 23.777 64.116 19.688 59.091 19.688z" fill="#ffffff" data-fill-palette-color="accent"></path><g fill="#10b981" data-fill-palette-color="accent"><rect x="49" y="9.994" width="2" height="7.777" fill="#ffffff" data-fill-palette-color="accent"></rect></g></svg></g></svg></g></svg></g></svg></g><defs></defs></svg><rect width="395.52" height="63.005099059654334" fill="none" stroke="none" visibility="hidden"></rect></g></svg></g></svg>